<?xml version="1.0" encoding="UTF-8"?>
<svg xmlns="http://www.w3.org/2000/svg" xmlns:xlink="http://www.w3.org/1999/xlink" width="16px" height="16px" viewBox="0 0 16 16" version="1.1">
<g id="surface1">
<path style=" stroke:none;fill-rule:nonzero;fill:#2e2520;fill-opacity:1;" d="M 10.546875 1.914062 C 9.101562 1.308594 7.480469 1.238281 5.988281 1.71875 C 5.816406 1.773438 5.71875 1.957031 5.773438 2.128906 C 5.828125 2.300781 6.011719 2.394531 6.183594 2.339844 C 7.53125 1.910156 8.992188 1.972656 10.296875 2.515625 C 10.335938 2.535156 10.378906 2.542969 10.421875 2.542969 C 10.546875 2.542969 10.667969 2.464844 10.722656 2.339844 C 10.792969 2.175781 10.714844 1.984375 10.546875 1.914062 Z M 10.546875 1.914062 "/>
<path style=" stroke:none;fill-rule:nonzero;fill:#2e2520;fill-opacity:1;" d="M 11.511719 2.414062 C 11.507812 2.410156 11.503906 2.410156 11.5 2.40625 C 11.34375 2.3125 11.144531 2.359375 11.050781 2.515625 C 10.957031 2.667969 11.003906 2.867188 11.152344 2.960938 C 11.207031 2.996094 11.269531 3.011719 11.328125 3.011719 C 11.433594 3.011719 11.539062 2.960938 11.601562 2.867188 C 11.699219 2.71875 11.660156 2.515625 11.511719 2.414062 Z M 11.511719 2.414062 "/>
<path style=" stroke:none;fill-rule:nonzero;fill:#2e2520;fill-opacity:1;" d="M 13.976562 5.058594 C 13.851562 4.929688 13.644531 4.929688 13.515625 5.058594 L 13.058594 5.515625 C 12.929688 5.644531 12.929688 5.851562 13.058594 5.976562 C 13.121094 6.042969 13.207031 6.074219 13.289062 6.074219 C 13.375 6.074219 13.457031 6.042969 13.519531 5.976562 L 13.976562 5.519531 C 14.105469 5.394531 14.105469 5.1875 13.976562 5.058594 Z M 13.976562 5.058594 "/>
<path style=" stroke:none;fill-rule:nonzero;fill:#2e2520;fill-opacity:1;" d="M 2.625 6.707031 C 2.496094 6.578125 2.289062 6.578125 2.164062 6.707031 L 1.707031 7.164062 C 1.578125 7.292969 1.578125 7.5 1.707031 7.625 C 1.769531 7.691406 1.851562 7.722656 1.9375 7.722656 C 2.019531 7.722656 2.105469 7.691406 2.167969 7.625 L 2.625 7.167969 C 2.753906 7.042969 2.753906 6.835938 2.625 6.707031 Z M 2.625 6.707031 "/>
<path style=" stroke:none;fill-rule:nonzero;fill:#2e2520;fill-opacity:1;" d="M 3.609375 3.132812 C 3.480469 3.003906 3.273438 3.003906 3.148438 3.132812 L 2.691406 3.589844 C 2.5625 3.71875 2.5625 3.921875 2.691406 4.050781 C 2.753906 4.113281 2.839844 4.148438 2.921875 4.148438 C 3.003906 4.148438 3.089844 4.113281 3.152344 4.050781 L 3.609375 3.59375 C 3.738281 3.464844 3.738281 3.261719 3.609375 3.132812 Z M 3.609375 3.132812 "/>
<path style=" stroke:none;fill-rule:nonzero;fill:#2e2520;fill-opacity:1;" d="M 12.085938 3.632812 L 11.441406 3.632812 C 11.257812 3.632812 11.113281 3.777344 11.113281 3.960938 C 11.113281 4.140625 11.257812 4.285156 11.441406 4.285156 L 12.085938 4.285156 C 12.265625 4.285156 12.414062 4.140625 12.414062 3.960938 C 12.414062 3.777344 12.265625 3.632812 12.085938 3.632812 Z M 12.085938 3.632812 "/>
<path style=" stroke:none;fill-rule:nonzero;fill:#2e2520;fill-opacity:1;" d="M 4.730469 5.058594 L 4.273438 4.601562 C 4.144531 4.476562 3.9375 4.476562 3.808594 4.601562 C 3.683594 4.730469 3.683594 4.9375 3.808594 5.066406 L 4.265625 5.519531 C 4.332031 5.585938 4.414062 5.617188 4.496094 5.617188 C 4.582031 5.617188 4.664062 5.585938 4.730469 5.519531 C 4.855469 5.394531 4.855469 5.1875 4.730469 5.058594 Z M 4.730469 5.058594 "/>
<path style=" stroke:none;fill-rule:nonzero;fill:#2e2520;fill-opacity:1;" d="M 12.867188 7.164062 L 12.410156 6.707031 C 12.28125 6.578125 12.078125 6.578125 11.949219 6.707031 C 11.820312 6.835938 11.820312 7.042969 11.949219 7.167969 L 12.40625 7.625 C 12.46875 7.6875 12.554688 7.722656 12.636719 7.722656 C 12.71875 7.722656 12.804688 7.6875 12.867188 7.625 C 12.996094 7.5 12.996094 7.292969 12.867188 7.164062 Z M 12.867188 7.164062 "/>
<path style=" stroke:none;fill-rule:nonzero;fill:#2e2520;fill-opacity:1;" d="M 9.949219 3.957031 L 9.492188 3.5 C 9.363281 3.371094 9.15625 3.371094 9.027344 3.5 C 8.902344 3.628906 8.902344 3.835938 9.027344 3.960938 L 9.484375 4.417969 C 9.550781 4.480469 9.632812 4.515625 9.714844 4.515625 C 9.800781 4.515625 9.882812 4.480469 9.949219 4.417969 C 10.074219 4.289062 10.074219 4.082031 9.949219 3.957031 Z M 9.949219 3.957031 "/>
<path style=" stroke:none;fill-rule:nonzero;fill:#2e2520;fill-opacity:1;" d="M 6.101562 3.042969 C 5.976562 2.910156 5.769531 2.902344 5.636719 3.023438 L 5.164062 3.460938 C 5.03125 3.582031 5.019531 3.789062 5.144531 3.921875 C 5.207031 3.992188 5.296875 4.027344 5.382812 4.027344 C 5.464844 4.027344 5.542969 4 5.605469 3.941406 L 6.082031 3.503906 C 6.214844 3.382812 6.222656 3.175781 6.101562 3.042969 Z M 6.101562 3.042969 "/>
<path style=" stroke:none;fill-rule:nonzero;fill:#2e2520;fill-opacity:1;" d="M 8.003906 4.539062 L 7.996094 4.539062 C 7.816406 4.539062 7.667969 4.683594 7.667969 4.863281 C 7.667969 5.046875 7.816406 5.191406 7.996094 5.191406 L 8.003906 5.191406 C 8.183594 5.191406 8.332031 5.046875 8.332031 4.867188 C 8.332031 4.6875 8.183594 4.539062 8.003906 4.539062 Z M 8.003906 4.539062 "/>
<path style=" stroke:none;fill-rule:nonzero;fill:#2e2520;fill-opacity:1;" d="M 13.65625 2.34375 C 12.144531 0.832031 10.136719 0 8 0 C 5.863281 0 3.855469 0.832031 2.34375 2.34375 C 0.832031 3.855469 0 5.863281 0 8 C 0 10.136719 0.832031 12.144531 2.34375 13.65625 C 3.855469 15.167969 5.863281 16 8 16 C 10.136719 16 12.144531 15.167969 13.65625 13.65625 C 15.167969 12.144531 16 10.136719 16 8 C 16 5.863281 15.167969 3.855469 13.65625 2.34375 Z M 8 15.347656 C 5.054688 15.347656 2.507812 13.605469 1.339844 11.097656 C 1.550781 11.078125 1.75 10.988281 1.90625 10.835938 C 2.085938 10.660156 2.1875 10.414062 2.1875 10.164062 L 2.1875 9.871094 C 2.1875 9.636719 2.375 9.445312 2.605469 9.441406 C 2.71875 9.4375 2.824219 9.480469 2.90625 9.5625 C 2.996094 9.648438 3.042969 9.765625 3.042969 9.882812 L 3.042969 10.625 C 3.042969 11.210938 3.519531 11.699219 4.105469 11.707031 C 4.109375 11.707031 4.117188 11.707031 4.125 11.707031 C 4.40625 11.707031 4.671875 11.597656 4.875 11.398438 C 5.085938 11.191406 5.207031 10.90625 5.207031 10.609375 L 5.207031 10.042969 C 5.835938 10.902344 6.855469 11.460938 8 11.460938 C 9.632812 11.460938 11.003906 10.328125 11.367188 8.804688 C 11.410156 8.859375 11.433594 8.925781 11.433594 9 L 11.433594 9.804688 C 11.433594 10.417969 11.933594 10.929688 12.546875 10.941406 C 12.554688 10.941406 12.5625 10.941406 12.570312 10.941406 C 12.863281 10.941406 13.140625 10.828125 13.355469 10.617188 C 13.578125 10.398438 13.703125 10.097656 13.703125 9.789062 L 13.703125 9.011719 C 13.703125 8.921875 13.738281 8.835938 13.804688 8.773438 C 13.863281 8.714844 13.941406 8.683594 14.023438 8.683594 C 14.191406 8.6875 14.328125 8.828125 14.328125 9 L 14.328125 9.085938 C 14.328125 9.535156 14.644531 9.917969 15.0625 10.023438 C 14.183594 13.09375 11.351562 15.347656 8 15.347656 Z M 14.980469 9.085938 L 14.980469 9 C 14.980469 8.476562 14.558594 8.042969 14.035156 8.03125 C 13.777344 8.027344 13.53125 8.125 13.347656 8.308594 C 13.160156 8.492188 13.050781 8.75 13.050781 9.011719 L 13.050781 9.789062 C 13.050781 9.921875 12.996094 10.054688 12.898438 10.152344 C 12.804688 10.242188 12.683594 10.289062 12.558594 10.289062 C 12.300781 10.28125 12.085938 10.066406 12.085938 9.804688 L 12.085938 9 C 12.085938 8.589844 11.824219 8.234375 11.460938 8.09375 C 11.460938 8.0625 11.460938 8.03125 11.460938 8 C 11.460938 6.5625 10.554688 5.257812 9.207031 4.753906 C 9.035156 4.691406 8.847656 4.777344 8.785156 4.949219 C 8.722656 5.117188 8.808594 5.304688 8.976562 5.367188 C 10.074219 5.773438 10.808594 6.832031 10.808594 8 C 10.808594 9.546875 9.546875 10.808594 8 10.808594 C 6.453125 10.808594 5.191406 9.546875 5.191406 8 C 5.191406 6.832031 5.925781 5.773438 7.023438 5.367188 C 7.191406 5.304688 7.277344 5.117188 7.214844 4.949219 C 7.152344 4.777344 6.964844 4.691406 6.792969 4.753906 C 5.445312 5.257812 4.539062 6.5625 4.539062 8 C 4.539062 8.429688 4.617188 8.839844 4.761719 9.21875 C 4.628906 9.382812 4.554688 9.589844 4.554688 9.804688 L 4.554688 10.609375 C 4.554688 10.730469 4.503906 10.847656 4.417969 10.933594 C 4.335938 11.015625 4.230469 11.058594 4.117188 11.054688 C 3.886719 11.050781 3.695312 10.859375 3.695312 10.625 L 3.695312 9.882812 C 3.695312 9.589844 3.574219 9.300781 3.363281 9.09375 C 3.15625 8.890625 2.882812 8.78125 2.59375 8.785156 C 2.011719 8.796875 1.535156 9.285156 1.535156 9.871094 L 1.535156 10.164062 C 1.535156 10.238281 1.503906 10.316406 1.445312 10.367188 C 1.394531 10.421875 1.328125 10.449219 1.257812 10.445312 C 1.152344 10.445312 1.058594 10.378906 1.015625 10.285156 C 0.78125 9.5625 0.652344 8.796875 0.652344 8 C 0.652344 3.949219 3.949219 0.652344 8 0.652344 C 12.050781 0.652344 15.347656 3.949219 15.347656 8 C 15.347656 8.472656 15.300781 8.9375 15.214844 9.386719 C 15.082031 9.351562 14.980469 9.230469 14.980469 9.085938 Z M 14.980469 9.085938 "/>
</g>
</svg>
