<svg aria-hidden="true" style="position: absolute; width: 0; height: 0; overflow: hidden;" version="1.1" xmlns="http://www.w3.org/2000/svg" xmlns:xlink="http://www.w3.org/1999/xlink">
<defs>
<symbol id="icon-chat" viewBox="0 0 32 32">
<path fill="#674d40" style="fill: var(--color1, #674d40)" d="M24.74 14.517c0-5.749-6.058-9.517-12.107-9.517-6.075 0-12.111 3.786-12.111 9.517 0 2.168 0.95 4.288 2.674 5.97 0.047 0.047 0.076 0.112 0.076 0.183 0 0.025-0.004 0.049-0.010 0.072l0-0.002c-0.542 1.984-1.824 3.777-2.35 4.455-0.090 0.114-0.145 0.26-0.145 0.419 0 0.113 0.028 0.22 0.076 0.314l-0.002-0.004c0.117 0.233 0.35 0.375 0.61 0.375h0.017c2.576-0.064 5.561-0.79 7.407-2.605 0.047-0.046 0.112-0.075 0.184-0.075 0.023 0 0.044 0.003 0.065 0.008l-0.002-0c1.134 0.269 2.315 0.405 3.509 0.405 6.072 0 12.109-3.784 12.109-9.517zM9.337 22.73c-0.084-0.021-0.179-0.033-0.278-0.033-0.323 0-0.616 0.13-0.829 0.34l0-0c-1.845 1.815-4.859 2.227-6.285 2.319 0.651-0.9 1.71-2.552 2.208-4.372 0.027-0.094 0.042-0.202 0.042-0.314 0-0.331-0.136-0.629-0.354-0.844l-0-0c-1.567-1.528-2.396-3.364-2.396-5.31 0-4.738 5.019-8.594 11.188-8.594s11.187 3.856 11.187 8.595c0 4.738-5.019 8.594-11.187 8.594-1.123 0-2.232-0.128-3.296-0.38z"></path>
<path fill="#674d40" style="fill: var(--color1, #674d40)" d="M27.707 22.178c2.688-1.359 4.293-3.674 4.293-6.194 0-3.562-3.22-6.605-7.655-7.237-0.020-0.003-0.042-0.005-0.065-0.005-0.255 0-0.461 0.206-0.461 0.461 0 0.232 0.171 0.424 0.394 0.456l0.003 0c3.977 0.566 6.863 3.226 6.863 6.324 0 2.165-1.416 4.172-3.787 5.371-0.374 0.192-0.626 0.575-0.626 1.017 0 0.083 0.009 0.165 0.026 0.243l-0.001-0.008c0.225 1.056 0.703 2.035 1.086 2.698-2.723-0.453-3.755-1.76-4.081-2.325-0.201-0.341-0.566-0.566-0.984-0.566-0 0-0.001 0-0.001 0h-0.038c-0.51 0-1.023-0.035-1.521-0.105-0.010-0.001-0.022-0.001-0.033-0.001-0.255 0-0.462 0.207-0.462 0.462 0 0.222 0.156 0.407 0.364 0.452l0.003 0.001c0.54 0.076 1.095 0.114 1.65 0.114h0.037c0.078 0 0.149 0.040 0.186 0.105 1.249 2.164 4.12 2.716 5.296 2.854 0.26 0.030 0.507-0.089 0.646-0.31 0.064-0.1 0.102-0.223 0.102-0.354 0-0.135-0.040-0.26-0.109-0.364l0.002 0.003c-0.354-0.552-0.986-1.657-1.241-2.854-0.003-0.013-0.005-0.029-0.005-0.044 0-0.084 0.048-0.157 0.118-0.193l0.001-0.001zM5.457 12.867c-0.883 0.001-1.598 0.716-1.599 1.598v0c0.001 0.882 0.716 1.597 1.599 1.598h0c0.882-0.001 1.597-0.716 1.598-1.598v-0c-0.001-0.882-0.716-1.597-1.598-1.598h-0zM5.457 15.141c-0.008 0-0.017 0-0.026 0-0.374 0-0.677-0.303-0.677-0.677s0.303-0.677 0.677-0.677c0.009 0 0.019 0 0.028 0.001l-0.001-0c0.362 0.015 0.651 0.312 0.651 0.676s-0.289 0.662-0.65 0.676l-0.001 0zM10.015 12.867c-0.882 0.001-1.597 0.716-1.598 1.598v0c0.001 0.882 0.716 1.597 1.598 1.598h0c0.882-0.001 1.597-0.716 1.598-1.598v-0c-0.001-0.882-0.716-1.597-1.598-1.598h-0zM10.015 15.141c-0.007 0-0.016 0-0.025 0-0.374 0-0.677-0.303-0.677-0.677s0.303-0.677 0.677-0.677c0.009 0 0.019 0 0.028 0.001l-0.001-0c0.362 0.015 0.65 0.312 0.65 0.676s-0.289 0.663-0.651 0.677l-0.001 0zM14.574 12.867c-0.882 0.001-1.597 0.716-1.598 1.598v0c0.001 0.882 0.716 1.597 1.598 1.598h0c0.882-0.001 1.597-0.716 1.598-1.598v-0c-0.001-0.882-0.716-1.597-1.598-1.598h-0zM14.574 15.141c-0.007 0-0.016 0-0.025 0-0.374 0-0.677-0.303-0.677-0.677s0.303-0.677 0.677-0.677c0.009 0 0.019 0 0.028 0.001l-0.001-0c0.362 0.015 0.65 0.312 0.65 0.676s-0.289 0.663-0.651 0.677l-0.001 0zM19.133 12.867c-0.882 0.001-1.597 0.716-1.598 1.598v0c0.001 0.882 0.716 1.597 1.598 1.598h0c0.882-0.001 1.597-0.716 1.598-1.598v-0c-0.001-0.882-0.716-1.597-1.598-1.598h-0zM19.133 15.141c-0.007 0-0.016 0-0.025 0-0.374 0-0.677-0.303-0.677-0.677s0.303-0.677 0.677-0.677c0.009 0 0.019 0 0.028 0.001l-0.001-0c0.362 0.015 0.65 0.312 0.65 0.676s-0.289 0.663-0.651 0.677l-0.001 0z"></path>
</symbol>
<symbol id="icon-chef" viewBox="0 0 32 32">
<path fill="#674d40" style="fill: var(--color1, #674d40)" d="M23.043 9.106c0 0 0 0 0 0-0.248 0-0.45-0.201-0.451-0.449v-0c-0.073-3.584-2.996-6.462-6.591-6.462s-6.518 2.878-6.591 6.455l-0 0.007c0 0.249-0.202 0.451-0.451 0.451s-0.451-0.202-0.451-0.451v0c0.055-4.095 3.388-7.394 7.491-7.394s7.436 3.299 7.491 7.389l0 0.005c-0.001 0.248-0.201 0.449-0.449 0.449h-0z"></path>
<path fill="#674d40" style="fill: var(--color1, #674d40)" d="M24.356 19.295c-0.239-0.012-0.429-0.209-0.429-0.45 0-0.24 0.187-0.435 0.423-0.45l0.001-0c3.569-0.021 6.46-2.896 6.507-6.457l0-0.005c-0.036-3.583-2.949-6.474-6.538-6.474-0.017 0-0.034 0-0.052 0l0.003-0c-0.666 0-1.326 0.097-1.962 0.291-0.032 0.008-0.069 0.013-0.107 0.013-0.249 0-0.451-0.202-0.451-0.451 0-0.193 0.121-0.357 0.291-0.422l0.003-0.001c0.663-0.21 1.424-0.33 2.215-0.33 0.004 0 0.008 0 0.012 0h-0.001c0.014-0 0.031-0 0.048-0 4.086 0 7.402 3.294 7.439 7.371l0 0.004c-0.050 4.058-3.335 7.331-7.393 7.361l-0.003 0h-0.006zM7.644 19.295h-0.006c-4.059-0.031-7.344-3.303-7.394-7.355l-0-0.005c0.037-4.081 3.354-7.375 7.44-7.375 0.017 0 0.034 0 0.050 0h-0.003c0.754-0.001 1.504 0.11 2.225 0.33 0.199 0.050 0.343 0.227 0.343 0.438 0 0.249-0.202 0.451-0.451 0.451-0.056 0-0.11-0.010-0.159-0.029l0.003 0.001c-0.583-0.184-1.254-0.291-1.95-0.291-0.004 0-0.008 0-0.012 0h0.001c-0.015-0-0.033-0-0.050-0-3.589 0-6.502 2.891-6.538 6.471l-0 0.003c0.047 3.565 2.938 6.439 6.504 6.461h0.002c0.247 0.001 0.447 0.202 0.447 0.45s-0.201 0.45-0.45 0.45c-0.001 0-0.002 0-0.003 0h0z"></path>
<path fill="#674d40" style="fill: var(--color1, #674d40)" d="M24.356 30.496h-16.712c-0.249 0-0.451-0.202-0.451-0.451v-11.2c-0-0.007-0.001-0.016-0.001-0.024 0-0.249 0.202-0.451 0.451-0.451s0.451 0.202 0.451 0.451c0 0.008-0 0.017-0.001 0.025l0-0.001v10.749h15.813v-10.749c0-0.248 0.201-0.45 0.45-0.45s0.45 0.201 0.45 0.45v0 11.2c0 0.249-0.202 0.451-0.451 0.451v0z"></path>
<path fill="#674d40" style="fill: var(--color1, #674d40)" d="M27.491 26.132h-16.713c-0.007 0-0.016 0.001-0.024 0.001-0.249 0-0.451-0.202-0.451-0.451s0.202-0.451 0.451-0.451c0.008 0 0.017 0 0.025 0.001l-0.001-0h16.713c0.238 0.013 0.427 0.21 0.427 0.45s-0.188 0.437-0.425 0.45l-0.001 0z"></path>
</symbol>
<symbol id="icon-clock" viewBox="0 0 32 32">
<path fill="#674d40" style="fill: var(--color1, #674d40)" d="M16 0c-8.823 0-16 7.177-16 16 0 8.822 7.177 16 16 16 8.822 0 16-7.178 16-16 0-8.823-7.178-16-16-16zM16 30.934c-8.234 0-14.934-6.7-14.934-14.934s6.7-14.934 14.934-14.934 14.934 6.7 14.934 14.934-6.7 14.934-14.934 14.934z"></path>
<path fill="#674d40" style="fill: var(--color1, #674d40)" d="M16.534 13.878v-5.409c0-0.295-0.239-0.534-0.534-0.534s-0.534 0.239-0.534 0.534v5.409c-0.747 0.2-1.324 0.777-1.52 1.51l-0.003 0.015h-3.809c-0.008-0-0.017-0.001-0.026-0.001-0.295 0-0.534 0.239-0.534 0.534s0.239 0.534 0.534 0.534c0.009 0 0.018-0 0.027-0.001l-0.001 0h3.809c0.238 0.918 1.066 1.6 2.057 1.6 1.178 0 2.134-0.956 2.134-2.132 0-0.992-0.684-1.819-1.6-2.058zM16 17.002c-0.589-0.001-1.066-0.478-1.066-1.068s0.478-1.068 1.068-1.068c0 0 0.001 0 0.001 0h-0c0.589 0.001 1.066 0.478 1.066 1.068s-0.478 1.068-1.068 1.068c-0 0-0.001 0-0.001 0h0zM16 5.268c0.294 0 0.534-0.238 0.534-0.532v-0.534c0-0.295-0.239-0.534-0.534-0.534s-0.534 0.239-0.534 0.534v0 0.534c0 0.294 0.239 0.532 0.534 0.532zM16 26.602c-0.295 0-0.534 0.239-0.534 0.534v0 0.532c0 0.295 0.239 0.534 0.534 0.534s0.534-0.239 0.534-0.534v-0.532c0-0 0-0.001 0-0.001 0-0.294-0.238-0.532-0.532-0.532-0 0-0.001 0-0.001 0h0zM27.734 15.402h-0.534c-0.008-0-0.017-0.001-0.026-0.001-0.295 0-0.534 0.239-0.534 0.534s0.239 0.534 0.534 0.534c0.009 0 0.018-0 0.027-0.001l-0.001 0h0.534c0.008 0 0.017 0.001 0.026 0.001 0.295 0 0.534-0.239 0.534-0.534s-0.239-0.534-0.534-0.534c-0.009 0-0.018 0-0.027 0.001l0.001-0zM4.8 15.402h-0.534c-0.294 0-0.533 0.239-0.533 0.533s0.239 0.533 0.533 0.533v0h0.534c0.008 0 0.017 0.001 0.026 0.001 0.295 0 0.534-0.239 0.534-0.534s-0.239-0.534-0.534-0.534c-0.009 0-0.018 0-0.027 0.001l0.001-0zM23.919 7.261l-0.378 0.378c-0.096 0.097-0.156 0.23-0.156 0.377 0 0.295 0.239 0.534 0.534 0.534 0.148 0 0.281-0.060 0.378-0.157v0l0.376-0.378c0.096-0.096 0.156-0.23 0.156-0.377 0-0.294-0.239-0.533-0.533-0.533-0.147 0-0.28 0.060-0.377 0.156v0zM7.703 23.478l-0.376 0.378c-0.096 0.096-0.156 0.23-0.156 0.377 0 0.294 0.239 0.533 0.533 0.533 0.147 0 0.28-0.060 0.377-0.156l0.378-0.378c0.096-0.097 0.156-0.23 0.156-0.377 0-0.295-0.239-0.534-0.534-0.534-0.147 0-0.281 0.060-0.378 0.157v0zM24.297 23.478c-0.097-0.097-0.23-0.156-0.378-0.156-0.295 0-0.534 0.239-0.534 0.534 0 0.147 0.060 0.281 0.156 0.378v0l0.378 0.376c0.096 0.097 0.23 0.158 0.378 0.158s0.281-0.060 0.378-0.158l0-0c0.097-0.096 0.157-0.23 0.157-0.378s-0.060-0.281-0.157-0.378l-0-0-0.378-0.376zM8.081 7.261c-0.097-0.097-0.23-0.156-0.378-0.156-0.295 0-0.534 0.239-0.534 0.534 0 0.147 0.060 0.281 0.156 0.378v0l0.378 0.376c0.096 0.097 0.23 0.157 0.378 0.157s0.281-0.060 0.378-0.157l0-0c0.097-0.096 0.157-0.23 0.157-0.378s-0.060-0.281-0.157-0.378l-0-0-0.378-0.376z"></path>
</symbol>
<symbol id="icon-donut" viewBox="0 0 32 32">
<path d="M27.165 14.737c0.001-0.025 0.006-0.049 0.006-0.074 0-3.662-5.015-6.642-11.178-6.642s-11.178 2.979-11.178 6.642c0 0.026 0.005 0.049 0.006 0.074-0.161 0.48-0.255 1.032-0.256 1.606v0.001c0 4.214 5.127 7.642 11.428 7.642s11.428-3.428 11.428-7.642c-0.001-0.575-0.095-1.127-0.267-1.644l0.011 0.037zM24.291 13.838l0.475-0.475c0.058-0.059 0.139-0.096 0.228-0.096 0.176 0 0.319 0.143 0.319 0.319 0 0.089-0.037 0.17-0.096 0.228l-0.475 0.475c-0.057 0.055-0.135 0.089-0.221 0.089-0.176 0-0.319-0.143-0.319-0.319 0-0.086 0.034-0.164 0.089-0.221l-0 0zM21 10.84l0.475-0.475c0.057-0.055 0.135-0.090 0.222-0.090 0.176 0 0.319 0.143 0.319 0.319 0 0.086-0.034 0.164-0.090 0.222l-0.475 0.475c-0.058 0.059-0.139 0.096-0.228 0.096-0.176 0-0.319-0.143-0.319-0.319 0-0.089 0.037-0.17 0.096-0.228l0-0zM21 13.838l0.475-0.475c0.057-0.056 0.136-0.091 0.223-0.091 0.176 0 0.319 0.143 0.319 0.319 0 0.087-0.035 0.165-0.091 0.223l-0.475 0.475c-0.058 0.060-0.139 0.097-0.229 0.097-0.176 0-0.319-0.143-0.319-0.319 0-0.090 0.037-0.171 0.097-0.229l0-0zM21 16.837l0.475-0.475c0.058-0.059 0.139-0.096 0.228-0.096 0.176 0 0.319 0.143 0.319 0.319 0 0.089-0.037 0.17-0.096 0.228l-0.475 0.475c-0.057 0.056-0.136 0.091-0.223 0.091-0.176 0-0.319-0.143-0.319-0.319 0-0.087 0.035-0.165 0.091-0.223l-0 0zM18.279 16.813l-0.475 0.475c-0.058 0.058-0.137 0.093-0.225 0.093-0.176 0-0.319-0.143-0.319-0.319 0-0.088 0.036-0.168 0.093-0.225l0.475-0.475c0.058-0.058 0.137-0.093 0.225-0.093 0.176 0 0.319 0.143 0.319 0.319 0 0.088-0.036 0.168-0.093 0.225v0zM14.633 16.813l-0.475 0.475c-0.057 0.055-0.135 0.090-0.222 0.090-0.176 0-0.319-0.143-0.319-0.319 0-0.086 0.034-0.164 0.090-0.222l0.475-0.475c0.058-0.059 0.139-0.096 0.228-0.096 0.176 0 0.319 0.143 0.319 0.319 0 0.089-0.037 0.17-0.096 0.228l-0 0zM15.993 12.475c2.414 0 3.896 0.78 3.896 1.339 0 0.22-0.234 0.475-0.661 0.702-0.838-0.361-2.003-0.569-3.235-0.569s-2.397 0.207-3.235 0.569c-0.427-0.228-0.661-0.482-0.661-0.702 0-0.559 1.482-1.339 3.896-1.339zM18.307 14.87c-0.665 0.18-1.428 0.283-2.215 0.283-0.035 0-0.069-0-0.104-0.001l0.005 0c-0.029 0-0.064 0.001-0.098 0.001-0.787 0-1.551-0.103-2.277-0.297l0.062 0.014c0.695-0.181 1.492-0.285 2.314-0.285s1.619 0.104 2.38 0.299l-0.066-0.014zM17.354 10.84l0.475-0.475c0.058-0.058 0.137-0.093 0.225-0.093 0.176 0 0.319 0.143 0.319 0.319 0 0.088-0.036 0.168-0.093 0.225l-0.475 0.475c-0.058 0.058-0.137 0.093-0.225 0.093-0.176 0-0.319-0.143-0.319-0.319 0-0.088 0.036-0.168 0.093-0.225v0zM13.708 10.84l0.475-0.475c0.057-0.055 0.135-0.089 0.221-0.089 0.176 0 0.319 0.143 0.319 0.319 0 0.086-0.034 0.164-0.089 0.221l-0.475 0.475c-0.057 0.056-0.136 0.091-0.223 0.091-0.176 0-0.319-0.143-0.319-0.319 0-0.087 0.035-0.165 0.091-0.223l-0 0zM10.061 10.84l0.475-0.475c0.058-0.058 0.137-0.093 0.225-0.093 0.176 0 0.319 0.143 0.319 0.319 0 0.088-0.036 0.168-0.093 0.225l-0.475 0.475c-0.058 0.058-0.137 0.093-0.225 0.093-0.176 0-0.319-0.143-0.319-0.319 0-0.088 0.036-0.168 0.093-0.225v0zM10.061 13.838l0.475-0.475c0.058-0.058 0.137-0.093 0.225-0.093 0.176 0 0.319 0.143 0.319 0.319 0 0.088-0.036 0.168-0.093 0.225l-0.475 0.475c-0.058 0.058-0.137 0.093-0.225 0.093-0.176 0-0.319-0.143-0.319-0.319 0-0.088 0.036-0.168 0.093-0.225v0zM10.061 16.837l0.475-0.475c0.058-0.058 0.137-0.093 0.225-0.093 0.176 0 0.319 0.143 0.319 0.319 0 0.088-0.036 0.168-0.093 0.225l-0.475 0.475c-0.058 0.058-0.137 0.093-0.225 0.093-0.176 0-0.319-0.143-0.319-0.319 0-0.088 0.036-0.168 0.093-0.225v0zM6.771 13.838l0.475-0.475c0.058-0.058 0.137-0.093 0.225-0.093 0.176 0 0.319 0.143 0.319 0.319 0 0.088-0.036 0.168-0.093 0.225l-0.475 0.475c-0.058 0.058-0.137 0.093-0.225 0.093-0.176 0-0.319-0.143-0.319-0.319 0-0.088 0.036-0.168 0.093-0.225v0zM15.993 23.348c-5.95 0-10.791-3.142-10.791-7.005 0.001-0.198 0.015-0.392 0.040-0.581l-0.003 0.023c0.196 0.252 0.393 0.475 0.604 0.686l-0-0c0.193 0.193 0.375 0.396 0.545 0.609l0.011 0.015c0.155 0.206 0.285 0.478 0.422 0.767 0.268 0.561 0.571 1.198 1.179 1.573 0.461 0.284 1.037 0.312 1.594 0.339 0.405 0.019 0.825 0.040 1.18 0.159 0.302 0.101 0.606 0.319 0.928 0.549 0.466 0.334 0.948 0.678 1.542 0.768 0.53 0.080 1.061-0.089 1.575-0.253 0.412-0.131 0.801-0.255 1.173-0.255s0.762 0.124 1.174 0.255c0.423 0.135 0.859 0.273 1.295 0.273 0.001 0 0.003 0 0.004 0 0.097 0 0.193-0.007 0.287-0.022l-0.010 0.001c0.593-0.090 1.075-0.435 1.541-0.768 0.322-0.23 0.626-0.448 0.928-0.549 0.356-0.119 0.775-0.139 1.18-0.159 0.557-0.027 1.133-0.055 1.594-0.339 0.608-0.375 0.911-1.011 1.179-1.572 0.137-0.288 0.267-0.561 0.422-0.767 0.181-0.228 0.363-0.431 0.556-0.624l0-0c0.211-0.211 0.408-0.435 0.592-0.671l0.012-0.016c0.023 0.166 0.036 0.36 0.037 0.557v0.002c0 3.862-4.841 7.005-10.791 7.005z"></path>
</symbol>
<symbol id="icon-facebook" viewBox="0 0 32 32">
<path d="M23.387 0.007l-4.15-0.007c-4.662 0-7.675 3.091-7.675 7.875v3.631h-4.173c-0.36 0-0.652 0.292-0.652 0.652v0 5.261c0 0.36 0.293 0.653 0.652 0.653h4.173v13.275c0 0.36 0.291 0.652 0.652 0.652h5.443c0 0 0.001 0 0.002 0 0.36 0 0.652-0.292 0.652-0.652 0 0 0 0 0 0v0-13.277h4.877c0 0 0.001 0 0.002 0 0.36 0 0.652-0.292 0.652-0.652 0-0.001 0-0.001 0-0.002v0-5.258c-0.001-0.36-0.292-0.651-0.652-0.652h-4.879v-3.080c0-1.479 0.354-2.23 2.279-2.23h2.796c0 0 0 0 0 0 0.36 0 0.652-0.292 0.652-0.652 0-0.001 0-0.001 0-0.002v0-4.884c0 0 0 0 0 0 0-0.36-0.291-0.652-0.65-0.653h-0z"></path>
</symbol>
<symbol id="icon-logo" viewBox="0 0 32 32">
<path d="M18.991 15.999c0 0.117-0.004 0.234 0 0.352 0.040 1.192-0.331 2.266-0.926 3.279-0.163 0.265-0.35 0.606-0.523 0.954l-0.039 0.086c-0.142 0.292-0.339 0.496-0.645 0.616-0.171 0.066-0.33 0.182-0.473 0.301-0.66 0.547-1.409 0.94-2.21 1.216-0.532 0.183-1.080 0.345-1.658 0.337-0.172-0.002-0.345 0.051-0.518 0.052s-0.345-0.056-0.516-0.048c-0.745 0.032-1.436-0.198-2.122-0.44-0.748-0.264-1.409-0.68-2.031-1.176-0.877-0.7-1.502-1.582-1.962-2.591-0.247-0.544-0.449-1.105-0.506-1.709-0.010-0.1-0.043-0.199-0.072-0.296-0.209-0.677-0.088-1.341 0.040-2.016 0.099-0.516 0.2-1.026 0.392-1.516 0.508-1.296 1.314-2.357 2.431-3.19 0.931-0.694 1.973-1.121 3.107-1.304 1.3-0.21 2.57-0.059 3.801 0.433 0.614 0.246 1.194 0.558 1.701 0.97 0.472 0.385 0.898 0.835 1.301 1.295 0.365 0.417 0.624 0.914 0.855 1.421 0.361 0.792 0.597 1.612 0.573 2.492-0.005 0.163-0.001 0.324-0.002 0.485zM18.492 14.395c-0.036-0.277-0.058-0.597-0.126-0.909-0.192-0.895-0.708-1.594-1.396-2.165-0.391-0.324-0.817-0.606-1.236-0.893-0.142-0.097-0.307-0.186-0.473-0.216-0.427-0.079-0.858-0.153-1.291-0.175-0.751-0.038-1.425-0.233-1.992-0.757-0.417-0.385-0.871-0.423-1.305-0.083-0.492 0.384-1.051 0.61-1.621 0.833-0.418 0.164-0.82 0.37-1.222 0.574-0.336 0.171-0.531 0.436-0.527 0.839 0.003 0.226-0.1 0.415-0.309 0.54-0.191 0.116-0.354 0.231-0.509 0.355l0.009-0.007c-0.445 0.351-0.791 0.747-0.865 1.36-0.059 0.485-0.206 0.965-0.537 1.365-0.107 0.132-0.178 0.296-0.198 0.476l-0 0.004c-0.030 0.363-0.018 0.73-0.009 1.095 0.002 0.098 0.045 0.202 0.095 0.288 0.132 0.233 0.255 0.426 0.388 0.612l-0.014-0.021c0.325 0.454 0.608 0.919 0.674 1.496 0.063 0.559 0.332 1.014 0.787 1.362 0.659 0.504 1.294 1.038 1.963 1.529 0.36 0.264 0.744 0.495 1.218 0.549s0.939 0.183 1.364 0.423c0.089 0.048 0.187 0.078 0.288 0.088 0.6 0.065 1.155-0.084 1.681-0.366 0.119-0.066 0.285-0.148 0.455-0.224l0.052-0.021c0.412-0.185 0.868-0.306 1.226-0.564 0.399-0.287 0.825-0.415 1.283-0.495 0.198-0.035 0.359-0.117 0.488-0.264 0.154-0.175 0.296-0.36 0.456-0.53 0.166-0.175 0.285-0.36 0.314-0.609 0.045-0.382 0.207-0.719 0.413-1.042 0.349-0.547 0.548-1.151 0.651-1.794 0.027-0.169 0.043-0.311-0.041-0.459-0.241-0.428-0.143-0.914-0.219-1.37-0.038-0.246 0.050-0.516 0.087-0.823l-0.001 0.001zM15.598 10.117c-0.101-0.113-0.134-0.164-0.18-0.195-0.083-0.058-0.174-0.105-0.262-0.155-0.754-0.427-1.581-0.634-2.426-0.783-0.17-0.030-0.348-0.017-0.521-0.010-0.045 0.002-0.099 0.046-0.127 0.085-0.013 0.018 0.016 0.081 0.041 0.111 0.185 0.22 0.424 0.389 0.698 0.487l0.011 0.004c0.477 0.172 0.978 0.267 1.485 0.28 0.215 0.006 0.429 0.047 0.642 0.076 0.182 0.026 0.364 0.057 0.639 0.1zM9.185 22.419c-0.507-0.416-0.951-0.787-1.403-1.149-0.374-0.299-0.756-0.588-1.139-0.877-0.043-0.032-0.111-0.031-0.205-0.056 0.461 0.777 1.999 1.956 2.746 2.082zM5.772 12.719c0.306-0.234 0.588-0.481 0.899-0.685 0.435-0.285 0.602-0.639 0.499-1.246-0.309 0.253-0.529 0.559-0.767 0.836-0.252 0.292-0.438 0.641-0.648 0.969-0.016 0.026 0.010 0.079 0.018 0.126zM16.076 21.581c-0.285-0.020-0.572 0.031-0.751 0.185-0.339 0.293-0.743 0.44-1.154 0.587-0.216 0.077-0.419 0.19-0.622 0.297-0.028 0.015-0.033 0.094-0.028 0.141 0.002 0.016 0.078 0.042 0.109 0.031 0.369-0.126 0.749-0.228 1.099-0.397 0.428-0.206 0.83-0.467 1.24-0.71 0.043-0.024 0.066-0.081 0.106-0.134zM5.188 17.52c-0.082 0.242-0.066 0.377-0.014 0.52 0.143 0.397 0.23 0.815 0.487 1.162 0.096 0.128 0.115 0.416 0.291 0.354 0.155-0.054-0.026-0.282-0.037-0.435-0.040-0.586-0.348-1.058-0.727-1.6zM7.952 10.222l0.038 0.058c0.213-0.079 0.428-0.154 0.639-0.239 1.109-0.425 1.561-0.615 2.011-0.808l-0.641 0.245c0.092-0.039 0.176-0.101 0.254-0.164 0.022-0.018 0.018-0.079 0.011-0.116-0.003-0.017-0.047-0.035-0.072-0.036-0.043 0.001-0.085 0.008-0.126 0.021-0.619 0.177-1.203 0.438-1.761 0.755-0.131 0.074-0.237 0.19-0.354 0.286zM18.821 16.515c0.037-0.044 0.067-0.062 0.069-0.082 0.060-0.639-0.007-1.271-0.094-1.902-0.004-0.032-0.048-0.077-0.078-0.081-0.033-0.004-0.084 0.023-0.104 0.053-0.033 0.047-0.053 0.101-0.059 0.158-0.033 0.521 0.001 1.043 0.102 1.555 0.020 0.103 0.105 0.194 0.165 0.3zM5.038 14.753c0.241-0.092 0.277-0.26 0.304-0.411 0.063-0.369 0.221-0.723 0.169-1.113-0.253 0.465-0.476 0.936-0.472 1.524h-0zM10.883 22.846c-0.541-0.24-0.688-0.266-1.17-0.198 0.204 0.078 0.388 0.201 0.573 0.203 0.193 0.003 0.402 0.24 0.597-0.005h-0z"></path>
<path d="M12 18.064c-0.37-0.006-0.625-0.162-0.813-0.463-0.175-0.28-0.467-0.426-0.734-0.598-0.337-0.218-0.611-0.463-0.689-0.904-0.054-0.299 0.009-0.559 0.13-0.795 0.101-0.197 0.283-0.381 0.473-0.498 0.206-0.127 0.377-0.247 0.473-0.482 0.108-0.27 0.38-0.287 0.62-0.335 0.226-0.046 0.457-0.075 0.68-0.133 0.305-0.078 0.583-0.054 0.806 0.185 0.172 0.185 0.374 0.318 0.598 0.431 0.234 0.117 0.311 0.253 0.238 0.497-0.050 0.165-0.002 0.278 0.060 0.411 0.067 0.144 0.136 0.291 0.183 0.443 0.154 0.507-0.023 0.933-0.497 1.159-0.294 0.14-0.518 0.326-0.591 0.654-0.029 0.132-0.111 0.207-0.228 0.241-0.234 0.069-0.472 0.126-0.708 0.187zM13.554 15.939c0.008-0.893-0.667-1.607-1.543-1.608-0.787 0-1.578 0.535-1.609 1.559-0.024 0.82 0.656 1.583 1.542 1.586 1.080 0.005 1.589-0.747 1.61-1.537zM10.393 16.793c0-0.114 0.011-0.173-0.002-0.226-0.116-0.485-0.192-0.965 0.072-1.433 0.019-0.033-0.025-0.103-0.040-0.155-0.052 0.017-0.114 0.020-0.153 0.052-0.436 0.359-0.63 1.221 0.123 1.761zM12.011 14.107c0.182 0.067 0.287 0.115 0.395 0.144 0.402 0.107 0.744 0.299 0.983 0.652 0.047 0.070 0.108 0.173 0.198 0.094 0.048-0.043 0.063-0.172 0.036-0.237-0.037-0.086-0.122-0.193-0.203-0.21-0.221-0.046-0.341-0.207-0.485-0.347-0.242-0.233-0.512-0.306-0.924-0.097zM11.986 17.622l-0.005-0.034c-0.116 0-0.232-0.010-0.346 0.004-0.059 0.007-0.112 0.057-0.168 0.088 0.051 0.045 0.095 0.115 0.153 0.13 0.311 0.079 0.625 0.096 0.932-0.025 0.053-0.021 0.111-0.048 0.144-0.090 0.029-0.036 0.038-0.1 0.033-0.149-0.002-0.018-0.075-0.045-0.111-0.040-0.211 0.033-0.421 0.075-0.63 0.114l-0.001 0zM13.578 16.706c0.216-0.040 0.312-0.162 0.324-0.35 0.009-0.158 0.007-0.317-0.007-0.475-0.003-0.042-0.061-0.079-0.094-0.118-0.048 0.046-0.145 0.107-0.136 0.134 0.088 0.274-0.096 0.519-0.087 0.808v0zM15.551 17.942c-0.012 0.006-0.062 0.049-0.116 0.054-0.049 0.006-0.121-0.011-0.152-0.045-0.145-0.161-0.289-0.337-0.425-0.519l-0.014-0.020c-0.036-0.049-0.051-0.18-0.030-0.192 0.067-0.037 0.199-0.076 0.228-0.044 0.173 0.192 0.326 0.403 0.483 0.61 0.015 0.021 0.011 0.056 0.026 0.156zM8.21 19.446c0.080 0.006 0.239 0.011 0.393 0.038 0.038 0.007 0.090 0.082 0.090 0.127s-0.045 0.123-0.083 0.132c-0.3 0.075-0.599 0.093-0.864-0.108-0.026-0.025-0.043-0.060-0.043-0.099 0-0.004 0-0.009 0.001-0.013l-0 0.001c0.006-0.030 0.052-0.072 0.084-0.074 0.115-0.010 0.231-0.004 0.423-0.004zM17.614 13.107l0.113 0.062c-0.032 0.058-0.052 0.151-0.099 0.168-0.183 0.070-0.405 0.136-0.633 0.185l-0.030 0.005c-0.065 0.013-0.159-0.051-0.219-0.104-0.069-0.061-0.028-0.194 0.059-0.207 0.256-0.040 0.513-0.070 0.808-0.109zM9.975 20.737c0.12 0.056 0.221 0.072 0.27 0.132 0.134 0.167 0.257 0.343 0.368 0.527 0.054 0.088 0.005 0.182-0.086 0.208-0.050 0.014-0.14-0.027-0.177-0.072-0.136-0.163-0.27-0.345-0.393-0.534l-0.014-0.022c-0.029-0.046 0.016-0.138 0.032-0.239zM14.685 13.761c0.008-0.051 0-0.11 0.024-0.132 0.032-0.030 0.102-0.054 0.135-0.038 0.046 0.022 0.075 0.082 0.106 0.129 0.087 0.131 0.173 0.262 0.256 0.397 0.037 0.060 0.087 0.124 0.090 0.189 0.004 0.060-0.033 0.138-0.078 0.179-0.025 0.023-0.128 0.008-0.153-0.024-0.166-0.212-0.365-0.41-0.38-0.699zM15.201 11.511c-0.036 0.216-0.050 0.376-0.092 0.528-0.026 0.082-0.076 0.155-0.144 0.209-0.048 0.038-0.131 0.033-0.198 0.047-0.005-0.063-0.025-0.129-0.014-0.188 0.035-0.184 0.082-0.366 0.124-0.549 0.003-0.014 0.002-0.030 0.006-0.043 0.033-0.11 0.104-0.194 0.219-0.149 0.058 0.023 0.085 0.124 0.098 0.145zM12.103 12.917c0.101 0.013 0.232 0.020 0.356 0.050 0.043 0.010 0.105 0.087 0.098 0.12-0.013 0.059-0.062 0.137-0.114 0.155-0.082 0.026-0.17 0.026-0.253 0.001-0.144-0.046-0.277-0.061-0.421-0.001-0.094 0.040-0.182-0.002-0.208-0.096-0.034-0.126 0.061-0.187 0.167-0.205 0.113-0.019 0.23-0.016 0.374-0.024zM14.345 19.132c-0.041 0.179-0.072 0.336-0.116 0.489-0.008 0.030-0.072 0.071-0.098 0.064-0.048-0.012-0.115-0.049-0.125-0.089-0.011-0.044-0.018-0.094-0.018-0.146 0-0.040 0.004-0.080 0.012-0.118l-0.001 0.004c0.034-0.157 0.067-0.306 0.004-0.467-0.030-0.077-0.022-0.2 0.095-0.2 0.063 0 0.153 0.078 0.181 0.142 0.046 0.103 0.049 0.224 0.067 0.319zM12.576 19.086c-0.023 0.042-0.035 0.092-0.065 0.113-0.189 0.131-0.379 0.262-0.578 0.377-0.051 0.029-0.14 0.011-0.205-0.008-0.095-0.028-0.115-0.154-0.036-0.205 0.154-0.104 0.369-0.239 0.589-0.368l0.073-0.040c0.036-0.021 0.108 0.002 0.154 0.025 0.031 0.016 0.045 0.067 0.069 0.107zM10.165 10.677c0.031 0.018 0.089 0.034 0.096 0.062 0.075 0.278 0.147 0.556 0.207 0.837 0.017 0.078-0.086 0.122-0.155 0.075-0.217-0.147-0.353-0.69-0.226-0.917 0.013-0.023 0.045-0.034 0.078-0.057zM12.85 11.466c-0.065-0.044-0.136-0.066-0.146-0.104-0.010-0.041 0.024-0.111 0.060-0.144 0.159-0.143 0.326-0.277 0.499-0.403 0.059-0.041 0.18-0.070 0.225-0.038 0.106 0.075 0.050 0.18-0.024 0.258-0.099 0.104-0.198 0.214-0.312 0.298-0.088 0.063-0.2 0.090-0.303 0.134zM8.719 12.934l-0.159 0.151c-0.045-0.049-0.113-0.090-0.132-0.149-0.054-0.154-0.123-0.387-0.184-0.624l-0.016-0.075c-0.008-0.032 0.018-0.098 0.045-0.109 0.044-0.018 0.116-0.025 0.15 0 0.066 0.049 0.141 0.114 0.163 0.188 0.057 0.191 0.086 0.391 0.133 0.619zM6.98 16.789c-0.146 0.268-0.256 0.543-0.528 0.689-0.046 0.024-0.147-0.007-0.195-0.046-0.083-0.066 0-0.121 0.040-0.178 0.127-0.176 0.245-0.359 0.38-0.529 0.035-0.044 0.124-0.065 0.183-0.059 0.041 0.004 0.075 0.074 0.119 0.122zM8.626 16.812c0.076 0.044 0.131 0.057 0.141 0.086 0.017 0.048 0.026 0.122 0 0.155-0.042 0.053-0.113 0.083-0.174 0.118-0.159 0.092-0.317 0.188-0.482 0.267-0.050 0.024-0.142 0.017-0.187-0.016-0.093-0.066-0.060-0.172 0.014-0.219 0.228-0.143 0.467-0.268 0.688-0.392zM16.865 15.598c-0.059 0.132-0.141 0.332-0.238 0.525-0.015 0.030-0.11 0.046-0.15 0.028-0.037-0.017-0.078-0.092-0.070-0.133 0.039-0.214 0.082-0.428 0.148-0.634 0.020-0.063 0.111-0.12 0.181-0.141 0.026-0.008 0.094 0.090 0.126 0.15 0.018 0.034 0.003 0.086 0.003 0.205zM6.934 14.006c0.258 0.232 0.227 0.547 0.256 0.838 0.005 0.054-0.062 0.131-0.115 0.171-0.028 0.021-0.142-0.012-0.145-0.031-0.032-0.213-0.066-0.517-0.093-0.823l-0.004-0.062c-0.002-0.025 0.059-0.056 0.101-0.092zM12.96 21.195c0.043 0.011 0.086 0.025 0.128 0.042 0.155 0.072 0.31 0.142 0.462 0.222 0.072 0.037 0.144 0.084 0.195 0.144 0.060 0.069-0.008 0.203-0.092 0.184-0.281-0.061-0.556-0.146-0.766-0.357-0.031-0.031-0.030-0.109-0.020-0.161 0.006-0.029 0.060-0.049 0.093-0.074zM9.54 14.091c0.015 0.047 0.066 0.119 0.048 0.165-0.094 0.241-0.204 0.476-0.315 0.709-0.014 0.029-0.072 0.054-0.106 0.050-0.030-0.004-0.072-0.046-0.080-0.079-0.059-0.26 0.127-0.726 0.334-0.843 0.021-0.012 0.056-0.002 0.119-0.002zM17.576 18.040c-0.032-0.020-0.1-0.046-0.135-0.094-0.014-0.019 0.031-0.107 0.070-0.136 0.151-0.113 0.325-0.23 0.505-0.338l0.029-0.016c0.050-0.029 0.153-0.031 0.189 0.001 0.034 0.030 0.039 0.144 0.008 0.186-0.154 0.216-0.349 0.38-0.666 0.397zM16.508 19.896c-0.133-0.014-0.191-0.015-0.247-0.028-0.023-0.005-0.059-0.033-0.059-0.051-0-0.003-0-0.008-0-0.012 0-0.039 0.011-0.075 0.031-0.105l-0 0.001c0.029-0.033 0.066-0.056 0.108-0.068 0.206-0.062 0.411-0.124 0.62-0.174 0.045-0.011 0.141 0.019 0.147 0.045 0.014 0.062-0.003 0.136-0.027 0.198-0.013 0.033-0.064 0.060-0.102 0.072-0.179 0.049-0.358 0.093-0.47 0.122zM10.318 18.406c-0.015 0.063-0.039 0.203-0.085 0.334-0.011 0.033-0.101 0.064-0.143 0.052s-0.090-0.080-0.088-0.123c0.004-0.243 0.016-0.487 0.041-0.729 0.005-0.053 0.072-0.099 0.11-0.149 0.046 0.049 0.12 0.092 0.132 0.148 0.026 0.126 0.020 0.257 0.032 0.467zM19.952 10.797c0-0.515 0.124-0.906 0.372-1.172 0.251-0.269 0.573-0.403 0.965-0.403s0.704 0.116 0.935 0.348c0.234 0.232 0.351 0.603 0.351 1.112s-0.124 0.894-0.372 1.155-0.58 0.391-0.995 0.391c-0.358 0-0.652-0.103-0.88-0.31-0.118-0.108-0.212-0.256-0.279-0.446-0.065-0.192-0.097-0.417-0.097-0.675zM21.277 9.265c-0.285 0-0.519 0.127-0.703 0.382-0.18 0.255-0.271 0.628-0.271 1.121s0.086 0.852 0.258 1.078c0.172 0.226 0.401 0.34 0.686 0.34 0.288 0 0.522-0.127 0.703-0.382 0.183-0.257 0.275-0.63 0.275-1.117 0-0.49-0.087-0.849-0.262-1.078-0.172-0.229-0.401-0.344-0.686-0.344zM23.308 12.211h-0.351v-2.972h0.351v1.367h1.376v-1.367h0.351v2.972h-0.351v-1.562h-1.376v1.562zM26.841 12.211h-0.055l0.368-2.972h0.14l0.889 2.747 0.885-2.747h0.14l0.368 2.972h-0.351l-0.292-2.378-0.766 2.378h-0.267l-0.774-2.348-0.284 2.348zM31.92 9.239c0.054 0.054 0.080 0.123 0.080 0.208 0 0.071-0.016 0.143-0.047 0.217l-0.758 1.541v1.006h-0.351v-0.913l-0.847-2.059h0.36l0.808 1.915 0.736-1.49c0.031-0.071 0.047-0.144 0.047-0.221s-0.021-0.136-0.063-0.178l0.034-0.026zM0.597 12.992c0.219-0.010 0.433-0.015 0.641-0.015 0.214 0 0.437 0.022 0.671 0.067 0.239 0.045 0.472 0.13 0.701 0.254 0.233 0.119 0.429 0.277 0.587 0.468l0.002 0.003c0.164 0.19 0.296 0.442 0.395 0.756s0.149 0.696 0.149 1.145c0 0.449-0.075 0.853-0.224 1.212-0.144 0.354-0.343 0.626-0.597 0.816-0.492 0.369-1.087 0.554-1.783 0.554-0.244 0-0.5-0.010-0.768-0.030h-0.373v-5.229h0.597zM0.619 18.162c0.105 0.010 0.236 0.015 0.395 0.015s0.278-0.003 0.358-0.008c0.080-0.005 0.189-0.025 0.328-0.060 0.148-0.042 0.277-0.096 0.398-0.162l-0.010 0.005c0.119-0.065 0.244-0.16 0.373-0.284 0.134-0.131 0.248-0.281 0.338-0.447l0.005-0.010c0.214-0.409 0.321-0.943 0.321-1.601 0-0.469-0.057-0.873-0.172-1.212-0.114-0.344-0.246-0.598-0.395-0.763-0.144-0.163-0.321-0.295-0.52-0.385l-0.010-0.004c-0.209-0.1-0.375-0.157-0.5-0.172-0.122-0.014-0.263-0.023-0.406-0.023-0.009 0-0.019 0-0.028 0h0.001c-0.164 0-0.323 0.008-0.477 0.022v5.088zM20.073 18.222h-0.097v-5.237h0.254l3.103 4.841v-4.84h0.097v5.237h-0.544l-2.812-4.339v4.339zM28.022 12.985h0.097v2.993c0 0.783-0.154 1.359-0.462 1.728-0.308 0.364-0.711 0.546-1.208 0.546-0.313 0-0.579-0.027-0.798-0.082-0.219-0.060-0.425-0.167-0.619-0.322-0.398-0.309-0.597-0.933-0.597-1.87v-2.993h0.619v2.985c0 0.908 0.137 1.514 0.41 1.818 0.139 0.15 0.283 0.252 0.433 0.307 0.154 0.055 0.338 0.082 0.552 0.082 0.477 0 0.858-0.175 1.141-0.524 0.288-0.354 0.433-0.915 0.433-1.683v-2.985zM30.663 18.222h-0.619v-5.163h-1.29v-0.075h3.207v0.075h-1.298v5.162z"></path>
</symbol>
<symbol id="icon-people" viewBox="0 0 32 32">
<path fill="#674d40" style="fill: var(--color1, #674d40)" d="M10.935 1.231c-3.4 0.006-6.154 2.76-6.16 6.159v0.001c0.005 3.4 2.76 6.156 6.159 6.161h0.001c3.401-0.005 6.156-2.76 6.161-6.161v-0c-0.006-3.4-2.761-6.155-6.161-6.16h-0zM10.935 12.519c-2.834-0.004-5.13-2.301-5.132-5.135v-0c0.006-2.832 2.3-5.125 5.13-5.132h0.001c2.834 0.002 5.131 2.298 5.135 5.132v0c-0.005 2.833-2.299 5.128-5.132 5.135h-0.001zM23.553 3.788c-2.553 0.002-4.622 2.071-4.624 4.624v0c0.003 2.552 2.072 4.621 4.624 4.623h0c2.552-0.003 4.62-2.071 4.623-4.622v-0c-0.002-2.553-2.070-4.621-4.622-4.624h-0zM23.553 12.015c-1.986-0.001-3.595-1.611-3.598-3.596v-0c0.001-1.986 1.611-3.596 3.597-3.598h0c1.986 0.002 3.595 1.612 3.596 3.597v0c-0.002 1.985-1.611 3.594-3.596 3.596h-0z"></path>
<path fill="#674d40" style="fill: var(--color1, #674d40)" d="M31.824 19.813c-0.466-2.809-2.212-5.178-5.184-6.418 0 0-1.317 0.996-3.087 0.964-1.935-0.037-3.087-0.964-3.087-0.964s-1.436 0.535-2.596 1.65c-1.071-0.951-2.879-1.726-2.879-1.726s-1.657 1.259-4.062 1.241c-2.527-0.018-4.052-1.241-4.052-1.241s-5.461 1.877-6.614 8.246c0 0-1.234 3.376 1.625 8.421h18.098s1.285-2.236 1.511-3.596h9.002c2.21-3.351 1.323-6.577 1.323-6.577zM19.351 28.96h-16.825c-2.198-4.176-1.248-7.225-1.248-7.225 0.552-3.239 2.636-5.896 5.465-7.231l0.059-0.025c1.186 0.698 2.613 1.11 4.135 1.11s2.949-0.412 4.174-1.131l-0.039 0.021c2.889 1.361 4.972 4.017 5.516 7.199l0.008 0.058c-0.006 0 0.907 3.754-1.247 7.225zM29.903 25.364h-8.196c0.315-1.814-0.101-3.799-0.101-3.799-0.388-2.293-1.453-4.289-2.979-5.827l0.001 0.001c0.529-0.479 1.114-0.875 1.756-1.184 1.935 1.108 4.398 1.108 6.331 0 2.141 1.033 3.683 3.016 4.089 5.387l0.006 0.043s0.75 2.544-0.907 5.378z"></path>
</symbol>
<symbol id="icon-star" viewBox="0 0 32 32">
<path  stroke="#ab816c" style="stroke: var(--color2, #ab816c)" stroke-linejoin="miter" stroke-linecap="butt" stroke-miterlimit="4" stroke-width="1.6" d="M15.238 2.531c0.107-0.325 0.407-0.555 0.762-0.555s0.655 0.23 0.76 0.549l0.002 0.006 2.429 7.477c0.322 0.971 1.222 1.659 2.283 1.659 0 0 0 0 0 0h7.862c0.441 0.001 0.799 0.358 0.799 0.8 0 0.265-0.128 0.499-0.326 0.645l-0.002 0.002-6.362 4.622c-0.603 0.441-0.989 1.146-0.989 1.942 0 0.265 0.043 0.52 0.122 0.758l-0.005-0.017 2.43 7.478c0.025 0.074 0.039 0.159 0.039 0.248 0 0.442-0.358 0.8-0.8 0.8-0.177 0-0.341-0.058-0.474-0.155l0.002 0.002-6.36-4.622c-0.391-0.287-0.881-0.459-1.411-0.459s-1.021 0.172-1.418 0.463l0.007-0.005-6.36 4.622c-0.131 0.096-0.295 0.154-0.472 0.154-0.442 0-0.8-0.358-0.8-0.8 0-0.089 0.015-0.175 0.042-0.256l-0.002 0.006 2.43-7.477c0.074-0.221 0.117-0.476 0.117-0.741 0-0.795-0.387-1.5-0.983-1.937l-0.007-0.005-6.363-4.622c-0.2-0.147-0.329-0.382-0.329-0.646 0-0.441 0.358-0.799 0.799-0.8h7.862c0 0 0 0 0 0 1.061 0 1.961-0.688 2.278-1.642l0.005-0.017 2.429-7.477z"></path>
</symbol>
<symbol id="icon-twitter" viewBox="0 0 32 32">
<path d="M32 6.333c-1.1 0.481-2.377 0.835-3.712 1.001l-0.068 0.007c1.353-0.786 2.374-2.017 2.873-3.488l0.013-0.045c-1.199 0.705-2.593 1.243-4.076 1.534l-0.084 0.014c-1.211-1.248-2.904-2.023-4.779-2.023-0.006 0-0.011 0-0.017 0h0.001c-3.628 0-6.552 2.872-6.552 6.393 0 0.507 0.044 0.995 0.152 1.459-5.44-0.251-10.241-2.784-13.502-6.658l-0.023-0.028c-0.561 0.922-0.895 2.037-0.897 3.23v0.001c0 2.213 1.169 4.176 2.913 5.312-1.090-0.028-2.107-0.316-2.998-0.804l0.034 0.017v0.071c0 3.107 2.275 5.685 5.256 6.28-0.533 0.143-1.116 0.211-1.72 0.211-0.42 0-0.844-0.024-1.243-0.109 0.851 2.532 3.263 4.392 6.131 4.453-2.223 1.701-5.043 2.725-8.101 2.725-0.011 0-0.022 0-0.034-0h0.002c-0.539 0-1.055-0.023-1.571-0.087 2.908 1.827 6.352 2.868 10.065 2.868 12.072 0 18.672-9.744 18.672-18.189 0-0.283-0.011-0.556-0.024-0.827 1.297-0.91 2.388-2.010 3.26-3.274l0.028-0.043z"></path>
</symbol>
<symbol id="icon-phone" viewBox="0 0 16 16">
<path d="M14.715 10.501c-0.979 0-1.941-0.153-2.853-0.454-0.447-0.152-0.996-0.013-1.268 0.267l-1.799 1.358c-2.086-1.114-3.371-2.398-4.47-4.469l1.318-1.752c0.342-0.342 0.465-0.842 0.318-1.31-0.302-0.916-0.456-1.877-0.456-2.857 0-0.708-0.576-1.284-1.284-1.284h-2.938c-0.708 0-1.284 0.576-1.284 1.284 0 8.114 6.601 14.715 14.715 14.715 0.708 0 1.284-0.576 1.284-1.284v-2.93c0-0.708-0.576-1.284-1.284-1.284z"></path>
</symbol>
<symbol id="icon-map" viewBox="0 0 18 24">
<path d="M8.8 0.895c4.852 0 8.8 3.948 8.8 8.8 0 1.92-0.607 3.745-1.755 5.275l-6.502 8.757c-0.016 0.021-0.041 0.029-0.059 0.048-0.325 0.348-0.794 0.26-1.025-0.048-1.872-2.498-5.304-7.164-6.624-8.924 0 0-0-0.001-0.001-0.002l-0.008-0.011c-1.063-1.494-1.625-3.256-1.625-5.095 0-4.852 3.948-8.8 8.8-8.8zM8.8 14.442c2.612 0 4.747-2.135 4.747-4.747s-2.135-4.747-4.747-4.747c-2.612 0-4.747 2.135-4.747 4.747s2.135 4.747 4.747 4.747z"></path>
</symbol>
<symbol id="icon-inst" viewBox="0 0 32 32">
<path d="M16.315 32h-0.318c-0.141 0.001-0.307 0.001-0.474 0.001-2.324 0-4.632-0.071-6.921-0.212l0.314 0.015c-2.067-0.126-3.953-0.84-5.455-2.065-1.448-1.182-2.439-2.781-2.942-4.749-0.438-1.716-0.46-3.399-0.483-5.027-0.017-1.167-0.032-2.552-0.035-3.96 0.003-1.415 0.020-2.799 0.035-3.966 0.024-1.629 0.045-3.311 0.483-5.027 0.504-1.971 1.492-3.567 2.942-4.749 1.502-1.224 3.389-1.939 5.457-2.065 1.977-0.125 4.287-0.196 6.614-0.196 0.166 0 0.331 0 0.497 0.001l-0.026-0c0.135-0.001 0.294-0.001 0.454-0.001 2.331 0 4.646 0.071 6.942 0.212l-0.315-0.015c2.067 0.126 3.953 0.84 5.455 2.065 1.448 1.182 2.439 2.779 2.942 4.749 0.438 1.716 0.46 3.399 0.483 5.027 0.017 1.167 0.034 2.552 0.035 3.96v0.007c-0.003 1.406-0.020 2.791-0.035 3.96-0.024 1.629-0.045 3.311-0.483 5.027-0.504 1.969-1.492 3.567-2.942 4.749-1.502 1.224-3.389 1.939-5.457 2.065-1.965 0.125-4.262 0.196-6.575 0.196-0.067 0-0.134-0-0.201-0h0.010zM15.997 29.499c0.141 0.001 0.308 0.001 0.475 0.001 2.273 0 4.529-0.069 6.768-0.206l-0.307 0.015c1.561-0.094 2.917-0.601 4.025-1.506 1.027-0.837 1.735-1.992 2.1-3.431 0.365-1.428 0.387-2.961 0.406-4.443 0.017-1.162 0.034-2.535 0.037-3.929-0.003-1.395-0.020-2.769-0.037-3.929-0.020-1.482-0.040-3.015-0.404-4.443-0.369-1.44-1.075-2.594-2.1-3.431-1.112-0.904-2.466-1.411-4.029-1.506-1.94-0.123-4.206-0.193-6.489-0.193-0.154 0-0.308 0-0.462 0.001l0.024-0c-0.135-0.001-0.294-0.001-0.453-0.001-2.28 0-4.544 0.070-6.789 0.208l0.308-0.015c-1.563 0.094-2.919 0.601-4.029 1.506-1.026 0.837-1.731 1.991-2.099 3.431-0.365 1.428-0.387 2.961-0.406 4.443-0.017 1.162-0.034 2.536-0.037 3.933 0.003 1.388 0.020 2.764 0.037 3.924 0.020 1.482 0.040 3.015 0.404 4.443 0.369 1.44 1.075 2.594 2.1 3.432 1.112 0.904 2.466 1.411 4.029 1.506 2.2 0.135 4.467 0.197 6.927 0.19zM15.938 23.813c-4.313-0.005-7.808-3.5-7.813-7.813v-0c0.005-4.313 3.5-7.808 7.813-7.813h0c4.313 0.005 7.808 3.5 7.813 7.813v0c-0.005 4.314-3.501 7.809-7.814 7.813h-0zM15.938 10.688c-2.933 0.003-5.31 2.379-5.314 5.312v0c0.004 2.933 2.381 5.309 5.313 5.312h0c2.932-0.004 5.308-2.38 5.312-5.312v-0c-0.004-2.932-2.38-5.308-5.312-5.312h-0zM24.625 5.686c-1.036 0-1.875 0.84-1.875 1.875s0.84 1.875 1.875 1.875v0c1.035 0 1.875-0.839 1.875-1.875s-0.839-1.875-1.875-1.875v0z"></path>
</symbol>
<symbol id="icon-close" viewBox="0 0 32 32">
<path d="M30.355 32c0.422 0 0.843-0.16 1.163-0.483 0.643-0.643 0.643-1.685 0-2.328l-28.707-28.707c-0.643-0.643-1.685-0.643-2.328 0s-0.643 1.685 0 2.329l28.707 28.706c0.323 0.321 0.744 0.483 1.165 0.483z"></path>
<path d="M1.645 32c0.422 0 0.843-0.16 1.163-0.483l28.709-28.706c0.643-0.643 0.643-1.686 0-2.329s-1.685-0.643-2.329 0l-28.707 28.707c-0.643 0.643-0.643 1.685 0 2.328 0.323 0.321 0.744 0.483 1.163 0.483z"></path>
</symbol>
<symbol id="icon-menu" viewBox="0 0 60 32">
<path d="M2 0h56c1.105 0 2 0.895 2 2s-0.895 2-2 2h-56c-1.105 0-2-0.895-2-2s0.895-2 2-2z"></path>
<path d="M2 14h56c1.105 0 2 0.895 2 2s-0.895 2-2 2h-56c-1.105 0-2-0.895-2-2s0.895-2 2-2z"></path>
<path d="M2 28h56c1.105 0 2 0.895 2 2s-0.895 2-2 2h-56c-1.105 0-2-0.895-2-2s0.895-2 2-2z"></path>
</symbol>
</defs>
</svg>
